<svg xmlns="http://www.w3.org/2000/svg" xmlns:xlink="http://www.w3.org/1999/xlink" version="1.1" id="Layer_1" x="0px" y="0px" viewBox="5.0 -10.0 100.0 135.0" enable-background="new 0 0 100 100" xml:space="preserve" height="60px" width="60px">
<g>
	<circle fill="#ffffff" cx="31.661" cy="77.271" r="4.383"/>
	<circle fill="#ffffff" cx="68.291" cy="77.271" r="4.383"/>
	<path fill="#ffffff" d="M87.624,50.287V32.318c0-14.564-11.849-26.413-26.414-26.413H38.74c-14.564,0-26.414,11.848-26.414,26.413v17.969   c-4.311,1.511-7.351,5.591-7.351,10.418c0,3.811,5.964,14.698,10.655,19.079c0.677,7.925,7.343,14.167,15.44,14.167   c4.07,0,7.92-1.578,10.8-4.381h16.211c2.879,2.803,6.729,4.381,10.799,4.381c8.097,0,14.764-6.242,15.442-14.167   c4.689-4.381,10.653-15.268,10.653-19.079C94.976,55.879,91.936,51.799,87.624,50.287z M38.74,12.834h22.471   c10.745,0,19.485,8.74,19.485,19.484v4.973c-6.781-3.279-18.796-4.97-30.719-4.97c-11.924,0-23.94,1.691-30.721,4.971v-4.973   C19.255,21.574,27.996,12.834,38.74,12.834z M71.621,47.87c-0.22,0.224-0.983,0.085-2.035-0.367   c-1.538-0.658-12.873-7.015-15.21-8.58c0.215-0.643,0.984-1.872,1.783-2.805c0.043-0.05,0.056-0.113,0.093-0.167   c7.857,0.399,14.27,1.515,18.829,2.886C75.056,41.371,72.267,47.07,71.621,47.87z M43.794,36.118   c0.798,0.931,1.568,2.159,1.783,2.804c-2.334,1.565-13.672,7.922-15.211,8.582c-1.053,0.451-1.813,0.584-1.988,0.416   c-0.69-0.848-3.48-6.547-3.507-9.083c4.56-1.371,10.972-2.487,18.83-2.886C43.738,36.005,43.751,36.068,43.794,36.118z    M79.077,75.153c-1.013,0.633-1.627,1.742-1.627,2.937v0.365c0,4.725-3.845,8.568-8.569,8.568c-2.568,0-4.978-1.137-6.614-3.121   c-0.658-0.798-1.637-1.26-2.673-1.26h-1.673c0.02-0.106,0.064-0.204,0.064-0.316v-4.307c0-0.957-0.776-1.732-1.732-1.732   s-1.732,0.775-1.732,1.732v4.307c0,0.112,0.043,0.21,0.064,0.316h-2.94c0.02-0.106,0.064-0.204,0.064-0.316v-8.473   c0-0.957-0.776-1.732-1.732-1.732s-1.732,0.775-1.732,1.732v8.473c0,0.112,0.043,0.21,0.064,0.316h-2.941   c0.02-0.106,0.064-0.204,0.064-0.316v-4.307c0-0.957-0.776-1.732-1.732-1.732s-1.732,0.775-1.732,1.732v4.307   c0,0.112,0.043,0.21,0.064,0.316h-1.673c-1.034,0-2.015,0.462-2.673,1.26c-1.636,1.984-4.046,3.121-6.615,3.121   c-4.725,0-8.568-3.843-8.568-8.568V78.09c0-1.194-0.615-2.304-1.626-2.937c-2.742-1.715-8.696-12.206-8.972-14.448   c0-2.238,1.754-4.045,3.994-4.114c0.382-0.012,0.742-0.099,1.083-0.225l5.641,6.401c0.342,0.389,0.82,0.587,1.3,0.587   c0.407,0,0.815-0.142,1.144-0.433c0.718-0.633,0.787-1.727,0.154-2.444l-6.017-6.827c0.026-0.171,0.052-0.343,0.052-0.522V41.149   c0.622-0.379,1.388-0.757,2.27-1.128c0.6,3.956,3.504,9.448,4.357,10.3c0.847,0.847,1.848,1.118,2.794,1.118   c1.304,0,2.505-0.515,3.054-0.75c1.792-0.768,14.833-8.039,16.405-9.349c0.56-0.467,0.89-1.115,0.954-1.874   c0.099-1.184-0.522-2.527-1.226-3.65c0.702-0.012,1.392-0.03,2.113-0.03c0.721,0,1.411,0.019,2.113,0.03   c-0.705,1.123-1.325,2.466-1.226,3.65c0.064,0.76,0.394,1.407,0.953,1.873c1.574,1.312,14.615,8.583,16.405,9.349   c0.55,0.236,1.751,0.751,3.055,0.751c0.946,0,1.947-0.271,2.794-1.118c0.854-0.854,3.757-6.346,4.356-10.3   c0.881,0.372,1.647,0.749,2.269,1.128v11.981c0,0.179,0.025,0.351,0.052,0.523l-6.016,6.826c-0.633,0.717-0.563,1.812,0.154,2.444   c0.33,0.291,0.738,0.433,1.145,0.433c0.479,0,0.957-0.198,1.299-0.587l5.641-6.4c0.34,0.125,0.7,0.213,1.081,0.225   c2.241,0.069,3.995,1.876,4.001,4.011C87.771,62.947,81.819,73.438,79.077,75.153z"/>
	<path fill="#ffffff" d="M66.071,68.226c0.694,0,1.35-0.42,1.615-1.106c0.345-0.893-0.098-1.896-0.99-2.241c-0.034-0.014-3.366-1.318-6.687-3.786   c-0.666-0.494-1.266-0.966-1.824-1.404c-2.525-1.984-4.52-3.552-7.881-3.552h-0.657c-3.361,0-5.355,1.568-7.881,3.552   c-0.558,0.438-1.158,0.91-1.824,1.404c-3.3,2.454-6.655,3.774-6.688,3.786c-0.891,0.347-1.333,1.352-0.987,2.241   c0.347,0.893,1.346,1.335,2.24,0.99c0.153-0.059,3.809-1.49,7.502-4.236c0.693-0.516,1.317-1.005,1.897-1.462   c2.307-1.813,3.578-2.811,5.741-2.811h0.657c2.163,0,3.434,0.998,5.741,2.811c0.58,0.457,1.204,0.946,1.897,1.462   c3.694,2.745,7.348,4.176,7.502,4.236C65.651,68.189,65.862,68.226,66.071,68.226z"/>
</g>
<!-- <text x="0.0" y="117.5" font-size="5.0" font-weight="bold" font-family="Helvetica Neue, Helvetica, Arial-Unicode, Arial, Sans-serif" fill="#000000">Created by ARudmann</text><text x="0.0" y="122.5" font-size="5.0" font-weight="bold" font-family="Helvetica Neue, Helvetica, Arial-Unicode, Arial, Sans-serif" fill="#000000">from the Noun Project</text> --></svg>