<svg xmlns="http://www.w3.org/2000/svg" xmlns:xlink="http://www.w3.org/1999/xlink" version="1.1" id="Layer_1" x="0px" y="0px" viewBox="5.0 -10.0 100.0 135.0" enable-background="new 0 0 100 100" xml:space="preserve" height="60px" width="60px">
<g>
	<path fill="#ffffff" d="M94.749,72.387l-11.58-29.525V30.909c0-14.188-11.543-25.731-25.73-25.731H42.521c-14.188,0-25.731,11.543-25.731,25.731   v11.953L5.212,72.387c-0.153,0.391-0.232,0.806-0.232,1.225c0,12.152,19.346,21.316,45,21.316s45-9.165,45-21.316   C94.98,73.193,94.901,72.777,94.749,72.387z M76.461,30.909v9.387c-6.451-6.656-15.207-8.59-24.804-5.237V11.886h5.782   C67.928,11.886,76.461,20.42,76.461,30.909z M42.521,11.886h5.782v23.173c-9.596-3.354-18.353-1.418-24.805,5.239v-9.389   C23.498,20.42,32.032,11.886,42.521,11.886z M49.98,88.221c-17.672,0-37.39-5.971-38.262-14.051l10.387-26.488   c3.504-5.888,11.553-14.838,26.197-9.058v1.436c0,0.926,0.751,1.677,1.677,1.677s1.677-0.751,1.677-1.677v-1.436   c14.645-5.775,22.691,3.169,26.195,9.056l10.391,26.491C87.37,82.249,67.652,88.221,49.98,88.221z"/>
	<path fill="#ffffff" d="M43.902,73.542c-0.926,0-1.677,0.75-1.677,1.677v4.17c0,0.927,0.751,1.677,1.677,1.677s1.677-0.75,1.677-1.677v-4.17   C45.579,74.292,44.829,73.542,43.902,73.542z"/>
	<path fill="#ffffff" d="M56.057,73.542c-0.926,0-1.677,0.75-1.677,1.677v4.17c0,0.927,0.751,1.677,1.677,1.677s1.677-0.75,1.677-1.677v-4.17   C57.735,74.292,56.984,73.542,56.057,73.542z"/>
	<path fill="#ffffff" d="M49.98,69.508c-0.926,0-1.677,0.75-1.677,1.677v8.203c0,0.927,0.751,1.677,1.677,1.677s1.677-0.75,1.677-1.677v-8.203   C51.657,70.258,50.906,69.508,49.98,69.508z"/>
	<path fill="#ffffff" d="M64.673,74.024c-0.197,0-0.386,0.032-0.576,0.058l-6.891-11.935v-1.911c0-3.984-3.241-7.225-7.225-7.225   c-3.985,0-7.226,3.241-7.226,7.225v1.911l-6.891,11.935c-0.19-0.026-0.379-0.058-0.576-0.058c-2.344,0-4.244,1.9-4.244,4.244   c0,2.344,1.9,4.244,4.244,4.244s4.244-1.9,4.244-4.244c0-0.918-0.298-1.761-0.793-2.456l7.146-12.378   c0.147-0.255,0.224-0.544,0.224-0.839v-2.36c0-2.134,1.737-3.871,3.872-3.871c2.134,0,3.871,1.737,3.871,3.871v2.36   c0,0.295,0.078,0.583,0.225,0.839l7.146,12.378c-0.495,0.694-0.793,1.538-0.793,2.455c0,2.344,1.9,4.244,4.244,4.244   c2.344,0,4.244-1.9,4.244-4.244C68.916,75.924,67.016,74.024,64.673,74.024z"/>
</g>
<!-- <text x="0.0" y="117.5" font-size="5.0" font-weight="bold" font-family="Helvetica Neue, Helvetica, Arial-Unicode, Arial, Sans-serif" fill="#000000">Created by ARudmann</text><text x="0.0" y="122.5" font-size="5.0" font-weight="bold" font-family="Helvetica Neue, Helvetica, Arial-Unicode, Arial, Sans-serif" fill="#000000">from the Noun Project</text> --></svg>